<svg width="20" height="32" viewBox="0 0 20 32" fill="none" xmlns="http://www.w3.org/2000/svg">
<path d="M17 0H3C1.34267 0 0 1.344 0 3V29C0 30.6573 1.344 32 3 32H17C18.6573 32 20 30.6573 20 29V3C20 1.34267 18.656 0 17 0ZM10 30C8.89733 29.9987 8.004 29.1053 8.004 28.0027C8.004 26.9 8.89867 26.0053 10.0013 26.0053C11.104 26.0053 11.9987 26.9 11.9987 28.0027C11.9987 28.5547 11.7747 29.0533 11.4133 29.4147C11.052 29.776 10.552 30 10 30ZM17 23.2533C16.9973 23.664 16.664 23.9973 16.2533 24H3.74933C3.33733 24 3.00267 23.6653 3.00267 23.2533V3.75067C3.00267 3.33867 3.33733 3.004 3.74933 3.004H16.248C16.6587 3.00667 16.992 3.34 16.9947 3.75067L17 23.2533Z" fill="url(#paint0_linear_736_2081)"/>
<defs>
<linearGradient id="paint0_linear_736_2081" x1="-7" y1="48" x2="41.6901" y2="26.4278" gradientUnits="userSpaceOnUse">
<stop stop-color="#FEDC8A"/>
<stop offset="1" stop-color="#FFA449"/>
</linearGradient>
</defs>
</svg>
