<svg width="29" height="32" viewBox="0 0 29 32" fill="none" xmlns="http://www.w3.org/2000/svg">
<path d="M17.356 18.9001C16.656 19.7005 16.481 20.6005 17.5302 21.8001C18.5802 23.0001 20.4185 22.2996 20.5052 24.0001C21.5552 22.1001 20.9423 20.2001 19.8935 19.0005C18.8438 17.7996 17.9685 18.1005 17.356 18.9001Z" fill="url(#paint0_linear_736_2066)"/>
<path d="M17.2684 18.6C17.6184 18.2 17.7063 17.6 17.3567 17.1005C16.8313 16.2 9.48169 8.90002 9.48169 8.90002C9.13169 8.50002 8.60669 8.40047 8.43169 8.70047C8.25708 8.90002 8.34419 9.50002 8.60669 9.90047C8.60669 9.90047 13.5942 16.9009 15.7817 18.9009C16.2192 19.2009 16.7446 19.2009 17.0942 18.7996L17.2684 18.6Z" fill="url(#paint1_linear_736_2066)"/>
<path d="M26.1934 0H3.44336C1.95547 0 0.818359 1.3 0.818359 3V28.9996C0.818359 30.7 1.95547 32 3.44336 32H26.1934C27.6809 32 28.8184 30.7 28.8184 28.9996V3C28.8184 1.3 27.6809 0 26.1934 0ZM10.6184 2.1C11.1434 2.1 11.6684 2.6 11.6684 3.3C11.6684 3.99955 11.2309 4.5 10.6184 4.5C10.093 4.5 9.56836 4 9.56836 3.3C9.56836 2.6 10.0059 2.1 10.6184 2.1ZM7.64336 2.1C8.16836 2.1 8.69336 2.6 8.69336 3.3C8.69336 3.99955 8.25625 4.5 7.64336 4.5C7.03047 4.5 6.59336 4 6.59336 3.3C6.59297 2.6 7.11836 2.1 7.64336 2.1ZM4.75586 2.1C5.28086 2.1 5.80586 2.6 5.80586 3.3C5.80586 3.99955 5.36836 4.5 4.75586 4.5C4.14336 4.5 3.70586 4 3.70586 3.3C3.70586 2.6 4.23086 2.1 4.75586 2.1ZM25.7559 26.4996C25.7559 27.6004 24.968 28.4996 24.0059 28.4996H5.63086C4.66836 28.4996 3.88125 27.5996 3.88125 26.4996V8.5C3.88125 7.4 4.66875 6.50045 5.63086 6.50045H13.0684C14.7309 6.50045 14.8184 6.50045 14.8184 5.50045C14.8184 4.20045 15.6059 3.50089 16.568 3.50089H24.0059C24.9688 3.50089 25.7555 4.40089 25.7555 5.50045L25.7559 26.4996Z" fill="url(#paint2_linear_736_2066)"/>
<defs>
<linearGradient id="paint0_linear_736_2066" x1="16.1781" y1="26.357" x2="23.5702" y2="22.0242" gradientUnits="userSpaceOnUse">
<stop stop-color="#FEDC8A"/>
<stop offset="1" stop-color="#FFA449"/>
</linearGradient>
<linearGradient id="paint1_linear_736_2066" x1="7.02108" y1="23.4163" x2="21.5207" y2="13.3246" gradientUnits="userSpaceOnUse">
<stop stop-color="#FEDC8A"/>
<stop offset="1" stop-color="#FFA449"/>
</linearGradient>
<linearGradient id="paint2_linear_736_2066" x1="-3.18164" y1="45" x2="40.6816" y2="14.3822" gradientUnits="userSpaceOnUse">
<stop stop-color="#FEDC8A"/>
<stop offset="1" stop-color="#FFA449"/>
</linearGradient>
</defs>
</svg>
