<svg width="30" height="33" viewBox="0 0 30 33" fill="none" xmlns="http://www.w3.org/2000/svg">
<path d="M1.81849 6.15165L4.72757 6.15165C5.11334 6.15165 5.48331 5.9984 5.75609 5.72562C6.02887 5.45285 6.18211 5.08288 6.18211 4.69711L6.18211 4.33347L10.3275 4.33347C7.33403 5.31189 4.72496 7.20879 2.87105 9.75466C1.01713 12.3005 0.0126504 15.3659 0.000319616 18.5152C0.000319591 18.8046 0.115253 19.082 0.319837 19.2866C0.524421 19.4912 0.801898 19.6061 1.09122 19.6061C1.38055 19.6061 1.65803 19.4912 1.86261 19.2866C2.06719 19.082 2.18213 18.8046 2.18213 18.5152C2.19014 15.3215 3.39857 12.2476 5.5676 9.90341C7.73662 7.55924 10.7077 6.11623 13.8912 5.86074L15.9275 5.86074C19.111 6.11623 22.0821 7.55925 24.2511 9.90341C26.4201 12.2476 27.6285 15.3215 27.6366 18.5152C27.6366 18.8046 27.7515 19.082 27.9561 19.2866C28.1607 19.4912 28.4381 19.6061 28.7275 19.6061C29.0168 19.6061 29.2943 19.4912 29.4988 19.2866C29.7034 19.082 29.8184 18.8046 29.8184 18.5152C29.806 15.3659 28.8016 12.3005 26.9476 9.75466C25.0937 7.20879 22.4847 5.31189 19.4911 4.33348L23.6366 4.33348L23.6366 4.69711C23.6366 5.08288 23.7898 5.45285 24.0626 5.72563C24.3354 5.9984 24.7053 6.15165 25.0911 6.15165L28.0002 6.15165C28.386 6.15165 28.7559 5.99841 29.0287 5.72563C29.3015 5.45285 29.4547 5.08288 29.4547 4.69711L29.4547 1.78803C29.4547 1.40227 29.3015 1.0323 29.0287 0.759518C28.7559 0.486739 28.386 0.333495 28.0002 0.333495L25.0911 0.333494C24.7053 0.333494 24.3354 0.486739 24.0626 0.759518C23.7898 1.0323 23.6366 1.40227 23.6366 1.78803L23.6366 2.15167L6.18211 2.15167L6.18211 1.78803C6.18211 1.40226 6.02887 1.0323 5.75609 0.759516C5.48331 0.486737 5.11334 0.333493 4.72757 0.333493L1.81849 0.333492C1.43273 0.333492 1.06276 0.486737 0.789979 0.759516C0.5172 1.03229 0.363956 1.40226 0.363956 1.78803L0.363955 4.69711C0.363955 5.08288 0.5172 5.45284 0.789979 5.72562C1.06276 5.9984 1.43273 6.15165 1.81849 6.15165ZM25.8184 2.5153L27.2729 2.5153L27.2729 3.96984L25.8184 3.96984L25.8184 2.5153ZM2.54576 2.5153L4.0003 2.5153L4.0003 3.96984L2.54576 3.96984L2.54576 2.5153ZM13.4548 15.9698L13.4548 6.87892L6.18211 17.2061L9.81845 28.697L9.30936 31.4606C9.28752 31.5675 9.29001 31.6779 9.31664 31.7837C9.34327 31.8895 9.39336 31.988 9.46321 32.0718C9.53305 32.1556 9.62086 32.2226 9.72012 32.2679C9.81938 32.3132 9.92756 32.3356 10.0366 32.3333L19.782 32.3333C19.8911 32.3356 19.9993 32.3132 20.0986 32.2679C20.1978 32.2226 20.2856 32.1556 20.3555 32.0718C20.4253 31.988 20.4754 31.8895 20.502 31.7837C20.5287 31.6779 20.5312 31.5675 20.5093 31.4606L20.0002 28.697L23.6366 17.2061L16.3639 6.80619L16.3639 15.9698C16.9185 16.29 17.3519 16.7842 17.597 17.3759C17.842 17.9675 17.885 18.6235 17.7193 19.242C17.5535 19.8606 17.1883 20.4072 16.6803 20.797C16.1722 21.1869 15.5497 21.3982 14.9093 21.3982C14.269 21.3982 13.6465 21.1869 13.1384 20.797C12.6304 20.4072 12.2651 19.8606 12.0994 19.242C11.9336 18.6235 11.9766 17.9675 12.2217 17.3759C12.4668 16.7842 12.9002 16.29 13.4548 15.9698Z" fill="url(#paint0_linear_736_2050)"/>
<defs>
<linearGradient id="paint0_linear_736_2050" x1="3.98535" y1="39" x2="38.95" y2="12.4772" gradientUnits="userSpaceOnUse">
<stop stop-color="#FEDC8A"/>
<stop offset="1" stop-color="#FFA449"/>
</linearGradient>
</defs>
</svg>
